<svg xmlns="http://www.w3.org/2000/svg" width="630" height="900" viewBox="0 0 630 900">
  <path id="减去_1" data-name="减去 1" d="M-1540,963a457.222,457.222,0,0,1-46.01-2.323,451.165,451.165,0,0,1-44.681-6.819c-14.5-2.967-29.007-6.7-43.125-11.089-13.96-4.342-27.87-9.433-41.344-15.132a450.028,450.028,0,0,1-76.439-41.49,453.23,453.23,0,0,1-66.6-54.949,453.231,453.231,0,0,1-54.949-66.6,450.033,450.033,0,0,1-41.49-76.439c-5.7-13.473-10.79-27.384-15.132-41.344-4.391-14.119-8.122-28.628-11.089-43.126a451.1,451.1,0,0,1-6.819-44.681A457.22,457.22,0,0,1-1990,513a457.221,457.221,0,0,1,2.323-46.01,451.126,451.126,0,0,1,6.819-44.681c2.966-14.5,6.7-29.006,11.089-43.125,4.342-13.961,9.433-27.871,15.132-41.344a450.052,450.052,0,0,1,41.49-76.439,453.244,453.244,0,0,1,54.949-66.6,453.22,453.22,0,0,1,66.6-54.949,450.033,450.033,0,0,1,76.439-41.49c13.474-5.7,27.384-10.79,41.344-15.132,14.118-4.391,28.628-8.122,43.125-11.089a451.156,451.156,0,0,1,44.681-6.819A457.21,457.21,0,0,1-1540,63a457.064,457.064,0,0,1,47.373,2.464,450.926,450.926,0,0,1,45.956,7.227,448.572,448.572,0,0,1,44.292,11.742A448.641,448.641,0,0,1-1360,100.444V925.556a448.656,448.656,0,0,1-42.379,16.01,448.577,448.577,0,0,1-44.292,11.742,450.984,450.984,0,0,1-45.956,7.227A457.059,457.059,0,0,1-1540,963Z" transform="translate(1990 -63)" fill="#ebebeb"/>
</svg>
